<svg width="60" height="60" viewBox="0 0 60 60" fill="none" xmlns="http://www.w3.org/2000/svg">
<path fill-rule="evenodd" clip-rule="evenodd" d="M46.005 24.15L31.6481 38.5126C31.1981 38.9626 30.5831 39.0938 30 38.9813C29.4169 39.0938 28.8019 38.9626 28.3537 38.5126L13.995 24.15C13.2638 23.4188 13.2638 22.2374 13.995 21.4874C14.7281 20.7562 15.915 20.7562 16.6481 21.4874L30 34.8562L43.3519 21.4874C44.085 20.7562 45.2719 20.7562 46.005 21.4874C46.7362 22.2374 46.7362 23.4188 46.005 24.15ZM30 0C13.4325 0 0 13.425 0 30C0 46.575 13.4325 60 30 60C46.5694 60 60 46.575 60 30C60 13.425 46.5694 0 30 0Z" fill="#3B2B2A"/>
</svg>
