<svg width="60" height="60" viewBox="0 0 60 60" fill="none" xmlns="http://www.w3.org/2000/svg">
<path fill-rule="evenodd" clip-rule="evenodd" d="M46.005 35.85L31.6481 21.4874C31.1981 21.0374 30.5831 20.9062 30 21.0187C29.4169 20.9062 28.8019 21.0374 28.3537 21.4874L13.995 35.85C13.2638 36.5812 13.2638 37.7626 13.995 38.5126C14.7281 39.2438 15.915 39.2438 16.6481 38.5126L30 25.1438L43.3519 38.5126C44.085 39.2438 45.2719 39.2438 46.005 38.5126C46.7362 37.7626 46.7362 36.5812 46.005 35.85ZM30 60C13.4325 60 0 46.575 0 30C0 13.425 13.4325 0 30 0C46.5694 0 60 13.425 60 30C60 46.575 46.5694 60 30 60Z" fill="#3B2B2A"/>
</svg>
